# AST/ASF file generated using VICON BodyLanguage
# -----------------------------------------------
:version 1.10
:name VICON
:units
  mass 1.0
  length 0.45
  angle deg
:documentation
   .ast/.asf automatically generated from VICON data using
   VICON BodyBuilder and BodyLanguage model FoxedUp or BRILLIANT.MOD
:root
   order TX TY TZ RX RY RZ
   axis XYZ
   position 0 0 0  
   orientation 0 0 0 
:bonedata
  begin
     id 1 
     name lhipjoint
     direction 0.577973 -0.728611 0.367523 
     length 2.48544 
     axis 0 0 0  XYZ
  end
  begin
     id 2 
     name lfemur
     direction 0.34202 -0.939693 0  
     length 7.1921  
     axis 0 0 20  XYZ
    dof rx ry rz
    limits (-160.0 20.0)
           (-70.0 70.0)
           (-60.0 70.0)
  end
  begin
     id 3 
     name ltibia
     direction 0.34202 -0.939693 0   
     length 7.71059   
     axis 0 0 20   XYZ
    dof rx
    limits (-10.0 170.0)
  end
  begin
     id 4 
     name lfoot
     direction 0.089538 -0.246004 0.965124   
     length 2.19909   
     axis -90 7.62852e-016 20   XYZ
    dof rx rz
    limits (-45.0 90.0)
           (-70.0 20.0)
  end
  begin
     id 5 
     name ltoes
     direction 1.53544e-011 -4.21829e-011 1   
     length 1.10116   
     axis -90 7.62852e-016 20   XYZ
    dof rx
    limits (-90.0 20.0)
  end
  begin
     id 6 
     name rhipjoint
     direction -0.554414 -0.743062 0.374812   
     length 2.4371  
     axis 0 0 0  XYZ 
  end
  begin
     id 7 
     name rfemur
     direction -0.34202 -0.939693 0   
     length 7.47254   
     axis 0 0 -20   XYZ
    dof rx ry rz
    limits (-160.0 20.0)
           (-70.0 70.0)
           (-70.0 60.0)
  end
  begin
     id 8 
     name rtibia
     direction -0.34202 -0.939693 0   
     length 7.65855   
     axis 0 0 -20   XYZ
    dof rx
    limits (-10.0 170.0)
 end
 begin
     id 9 
     name rfoot
     direction -0.133779 -0.367555 0.92033   
     length 2.43006  
     axis -90 -7.62852e-016 -20   XYZ
    dof rx rz
    limits (-45.0 90.0)
           (-20.0 70.0)
  end
  begin
     id 10 
     name rtoes
     direction -1.53563e-011 -4.21889e-011 1   
     length 1.19625   
     axis -90 -7.62852e-016 -20   XYZ
    dof rx
    limits (-90.0 20.0)
  end
  begin
     id 11 
     name lowerback
     direction 0.0249066 0.998043 -0.0573585   
     length 2.08485   
     axis 0 0 0   XYZ
    dof rx ry rz
    limits (-20.0 45.0)
           (-30.0 30.0)
           (-30.0 30.0)
  end
  begin
     id 12 
     name upperback
     direction 0.0237884 0.999673 0.00943178   
     length 2.08515   
     axis 0 0 0   XYZ
    dof rx ry rz
    limits (-20.0 45.0)
           (-30.0 30.0)
           (-30.0 30.0)
  end
  begin
     id 13 
     name thorax
     direction 0.0106671 0.999301 0.0358174   
     length 2.09037   
     axis 0 0 0   XYZ
    dof rx ry rz
    limits (-20.0 45.0)
           (-30.0 30.0)
           (-30.0 30.0)
  end
  begin
     id 14 
     name lowerneck
     direction -0.0580016 0.987052 0.149546   
     length 1.84454   
     axis 0 0 0   XYZ
    dof rx ry rz
    limits (-20.0 45.0)
           (-30.0 30.0)
           (-30.0 30.0)
  end
  begin
     id 15 
     name upperneck
     direction 0.079456 0.981963 -0.171567   
     length 1.88141   
     axis 0 0 0   XYZ
    dof rx ry rz
    limits (-20.0 45.0)
           (-30.0 30.0)
           (-30.0 30.0)
  end
  begin
     id 16
     name head
     direction 0.0262167 0.9967 -0.0768276  
     length 1.89541  
     axis 0 0 0   XYZ
    dof rx ry rz
    limits (-20.0 45.0)
           (-30.0 30.0)
           (-30.0 30.0)
  end
  begin
     id 17 
     name lclavicle
     direction 0.946135 0.322134 -0.0325326  
     length 3.949  
     axis 0 0 0   XYZ
    dof ry rz
    limits (-20.0 10.0)
           (0.0 20.0)
  end
  begin
     id 18 
     name lhumerus
     direction 1 -4.48964e-011 1.94005e-028   
     length 5.10995   
     axis 180 -30 -90   XYZ
    dof rx ry rz
    limits (-60.0 90.0)
           (-90.0 90.0)
           (-90.0 90.0)
  end
  begin
     id 19
     name lradius
     direction 1 -4.48976e-011 2.87852e-027   
     length 3.21207   
     axis 180 -30 -90   XYZ
    dof rx
    limits (-10.0 170.0)
  end
  begin
     id 20
     name lwrist
     direction 1 -4.48963e-011 1.9975e-027   
     length 1.60604   
     axis 2.96054e-016 90 90   XYZ
    dof ry
    limits (-180.0 0.0)
 end
  begin
     id 21 
     name lhand
     direction 1 -4.48919e-011 4.00227e-027   
     length 0.63349   
     axis -2.5488e-015 90 90   XYZ
    dof rx rz
    limits (-90.0 90.0)
           (-45.0 45.0)
  end
  begin
     id 22 
     name lfingers
     direction 1 -4.49037e-011 7.9652e-027   
     length 0.510736   
     axis -5.0975e-015 90 90   XYZ
    dof rx
    limits (0.0 90.0)
  end
  begin
     id 23
     name lthumb
     direction 0.707107 -6.34922e-011 0.707107   
     length 0.733318   
     axis -90 45 -4.48553e-014   XYZ
    dof rx rz
    limits (-45.0 45.0)
           (-45.0 45.0)
  end
  begin
     id 24 
     name rclavicle
     direction -0.940085 0.328911 -0.0897654   
     length 3.93848  
     axis 0 0 0   XYZ 
    dof ry rz
    limits (-10.0 20.0)
           (-20.0 0.0)
  end
  begin
     id 25 
     name rhumerus
     direction -1 -4.48958e-011 3.02044e-027  
     length 5.25109   
     axis 180 30 90   XYZ
    dof rx ry rz
    limits (-90.0 60.0)
           (-90.0 90.0)
           (-90.0 90.0)
  end
  begin
     id 26 
     name rradius
     direction -1 -4.4897e-011 9.78352e-028   
     length 3.28364   
     axis 180 30 90   XYZ
    dof rx
    limits (-10.0 170.0)
  end
  begin
     id 27 
     name rwrist
     direction -1 -4.48943e-011 1.99918e-027   
     length 1.64182   
     axis 2.96054e-016 -90 -90   XYZ
    dof ry
    limits (-180.0 0.0)
  end
  begin
     id 28
     name rhand
     direction -1 -4.49024e-011 3.98478e-027   
     length 0.599745   
     axis -2.5488e-015 -90 -90   XYZ
    dof rx rz
    limits (-90.0 90.0)
           (-45.0 45.0)
  end
  begin
     id 29
     name rfingers
     direction -1 -4.48914e-011 8.00621e-027   
     length 0.48353   
     axis -5.0975e-015 -90 -90   XYZ
    dof rx
    limits (0.0 90.0)
  end
  begin
     id 30
     name rthumb
     direction -0.707107 -6.34992e-011 0.707107   
     length 0.694255   
     axis -90 -45 4.48553e-014   XYZ
    dof rx rz
    limits (-45.0 45.0)
           (-45.0 45.0)
  end
:hierarchy
  begin
    root lhipjoint rhipjoint lowerback
    lhipjoint lfemur
    lfemur ltibia
    ltibia lfoot
    lfoot ltoes
    rhipjoint rfemur
    rfemur rtibia
    rtibia rfoot
    rfoot rtoes
    lowerback upperback
    upperback thorax
    thorax lowerneck lclavicle rclavicle
    lowerneck upperneck
    upperneck head
    lclavicle lhumerus
    lhumerus lradius
    lradius lwrist
    lwrist lhand lthumb
    lhand lfingers
    rclavicle rhumerus
    rhumerus rradius
    rradius rwrist
    rwrist rhand rthumb
    rhand rfingers
  end

#!OML:ASF E:\CV Data\Top Level 1\Subject 1\Session 1\player.ASF
:FULLY-SPECIFIED
:DEGREES
159
root 5.90766 17.0063 -22.8298 23.642 -5.29425 -4.08075
lowerback 37.7514 0.875788 2.46776
upperback 9.00207 2.20206 2.78267
thorax -8.60549 0.908172 0.816513
lowerneck -19.7169 -6.88611 -12.2271
upperneck 20.7555 -7.1134 5.5527
head 10.5886 -3.56281 2.91591
rclavicle 7.95139e-015 -2.5842e-015
rhumerus 11.2378 5.26721 -81.4421
rradius 75.5461
rwrist -31.452
rhand -32.5221 7.85127
rfingers 7.12502
rthumb -5.75287 -22.0506
lclavicle 7.95139e-015 -2.5842e-015
lhumerus 10.2778 -24.4279 98.7881
lradius 70.0227
lwrist 19.8121
lhand -37.698 25.0948
lfingers 7.12502
lthumb -10.7479 54.7998
rfemur -54.7894 0.980293 19.7805
rtibia 46.4547
rfoot -12.5676 -7.80371
rtoes 1.67742
lfemur -53.2172 12.2095 -16.3239
ltibia 43.5166
lfoot -9.73708 -2.29966
ltoes -6.06338
160
root 5.89095 17.0118 -22.8377 23.7914 -5.19901 -4.10321
lowerback 38.0116 0.860062 2.43831
upperback 8.97873 2.18255 2.78611
thorax -8.72143 0.896726 0.840583
lowerneck -19.7377 -6.82556 -12.1854
upperneck 20.6143 -7.02872 5.52659
head 10.5294 -3.52234 2.91232
rclavicle -9.54166e-015 -2.82274e-014
rhumerus 11.1166 5.19712 -81.5347
rradius 76.609
rwrist -32.2302
rhand -32.4972 7.30694
rfingers 7.12502
rthumb -5.72882 -22.5956
lclavicle -9.54166e-015 -2.82274e-014
lhumerus 10.6768 -24.731 98.8284
lradius 70.3035
lwrist 20.6033
lhand -37.3863 24.9724
lfingers 7.12502
lthumb -10.4473 54.6928
rfemur -54.9092 0.949353 19.886
rtibia 46.3288
rfoot -12.4664 -7.81251
rtoes 1.67362
lfemur -53.3422 12.197 -16.2586
ltibia 43.3672
lfoot -9.63403 -2.36772
ltoes -6.01406
161
root 5.87316 17.0175 -22.8439 23.9381 -5.08675 -4.12561
lowerback 38.2562 0.839952 2.41802
upperback 8.95582 2.16078 2.79061
thorax -8.8307 0.884456 0.862176
lowerneck -19.7588 -6.76921 -12.154
upperneck 20.4779 -6.95082 5.51602
head 10.474 -3.48396 2.91491
rclavicle 9.54166e-015 1.09332e-014
rhumerus 10.8594 5.10996 -81.6467
rradius 77.7777
rwrist -33.0312
rhand -32.3911 6.79984
rfingers 7.12502
rthumb -5.62634 -23.1055
lclavicle 9.54166e-015 1.09332e-014
lhumerus 10.9918 -25.0943 98.8652
lradius 70.7167
lwrist 21.5007
lhand -36.912 24.842
lfingers 7.12502
lthumb -9.98975 54.5849
rfemur -55.0171 0.909817 20.0002
rtibia 46.2044
rfoot -12.3761 -7.83039
rtoes 1.67443
lfemur -53.4602 12.1841 -16.189
ltibia 43.2161
lfoot -9.53693 -2.44967
ltoes -5.94913
162
root 5.85418 17.0235 -22.8482 24.0794 -4.9639 -4.15345
lowerback 38.4809 0.817153 2.40564
upperback 8.93991 2.13775 2.79535
thorax -8.92463 0.871886 0.880799
lowerneck -19.7804 -6.71427 -12.1318
upperneck 20.3381 -6.87519 5.51823
head 10.4186 -3.44578 2.92317
rclavicle 1.86858e-014 -3.57812e-015
rhumerus 10.4789 5.01603 -81.7778
rradius 79.0492
rwrist -33.8554
rhand -32.2068 6.35617
rfingers 7.12502
rthumb -5.44837 -23.5538
lclavicle 1.86858e-014 -3.57812e-015
lhumerus 11.2425 -25.5225 98.8801
lradius 71.2274
lwrist 22.455
lhand -36.3225 24.6254
lfingers 7.12502
lthumb -9.42096 54.3949
rfemur -55.1084 0.870889 20.1265
rtibia 46.0784
rfoot -12.2941 -7.85939
rtoes 1.68216
lfemur -53.5662 12.1773 -16.109
ltibia 43.0648
lfoot -9.44771 -2.54318
ltoes -5.87014
163
root 5.83428 17.0298 -22.8507 24.2047 -4.82777 -4.18722
lowerback 38.6948 0.785239 2.41129
upperback 8.93733 2.10888 2.79542
thorax -8.99855 0.85689 0.887771
lowerneck -19.8083 -6.66061 -12.1126
upperneck 20.1897 -6.80247 5.53263
head 10.3623 -3.40753 2.93561
rclavicle 3.57812e-015 -4.57205e-015
rhumerus 9.98896 4.9224 -81.9244
rradius 80.4132
rwrist -34.6949
rhand -31.9946 6.01075
rfingers 7.12502
rthumb -5.24354 -23.9044
lclavicle 3.57812e-015 -4.57205e-015
lhumerus 11.447 -26.0249 98.8694
lradius 71.7959
lwrist 23.3865
lhand -35.6517 24.2994
lfingers 7.12502
lthumb -8.77366 54.0971
rfemur -55.1705 0.828056 20.2668
rtibia 45.9502
rfoot -12.2201 -7.89716
rtoes 1.6799
lfemur -53.6485 12.1715 -16.0149
ltibia 42.9139
lfoot -9.36679 -2.64562
ltoes -5.7785
164
root 5.81351 17.0367 -22.8511 24.3086 -4.68235 -4.2301
lowerback 38.9151 0.74961 2.42275
upperback 8.93989 2.07842 2.80082
thorax -9.06844 0.841069 0.898191
lowerneck -19.8312 -6.60751 -12.1111
upperneck 20.0352 -6.72824 5.55751
head 10.3039 -3.36871 2.95489
rclavicle -1.23246e-014 -5.1684e-015
rhumerus 9.37863 4.84612 -82.0757
rradius 81.8651
rwrist -35.5391
rhand -31.7417 5.77655
rfingers 7.12502
rthumb -4.99933 -24.1445
lclavicle -1.23246e-014 -5.1684e-015
lhumerus 11.6123 -26.5948 98.8342
lradius 72.3864
lwrist 24.2498
lhand -34.9378 23.8313
lfingers 7.12502
lthumb -8.08474 53.6566
rfemur -55.1975 0.781969 20.425
rtibia 45.8199
rfoot -12.1554 -7.93837
rtoes 1.66273
lfemur -53.6993 12.1703 -15.9036
ltibia 42.7648
lfoot -9.29645 -2.75369
ltoes -5.68905
165
root 5.7921 17.0441 -22.8498 24.3866 -4.52837 -4.28173
lowerback 39.1394 0.707876 2.44489
upperback 8.95481 2.04442 2.80766
thorax -9.1249 0.823644 0.906292
lowerneck -19.8592 -6.55438 -12.1174
upperneck 19.8733 -6.65218 5.58828
head 10.2443 -3.32879 2.97763
rclavicle -5.56597e-015 -8.94531e-015
rhumerus 8.67491 4.78803 -82.2339
rradius 83.3786
rwrist -36.3774
rhand -31.4629 5.65328
rfingers 7.12502
rthumb -4.73011 -24.2739
lclavicle -5.56597e-015 -8.94531e-015
lhumerus 11.7584 -27.242 98.7681
lradius 72.9638
lwrist 24.9861
lhand -34.2237 23.2078
lfingers 7.12502
lthumb -7.39552 53.0585
rfemur -55.1861 0.734317 20.5979
rtibia 45.6891
rfoot -12.102 -7.98251
rtoes 1.64358
lfemur -53.7146 12.1694 -15.7733
ltibia 42.6177
lfoot -9.23496 -2.86337
ltoes -5.58804
